<svg xmlns="http://www.w3.org/2000/svg" viewBox="0 0 436.2 473.8">
  <defs>
    <style>
      .cls-1 {
        fill: #fff;
      }
    </style>
  </defs>
  <path id="パス_749" data-name="パス 749" class="cls-1" d="M454.8,111.7a12.417,12.417,0,0,0-1.2-5.3,11.586,11.586,0,0,0-8.1-6.4L241.8,1.2a12.084,12.084,0,0,0-10.5,0L25.6,100.9a12.043,12.043,0,0,0-6.8,10.4V362a11.918,11.918,0,0,0,6.8,10.8l205.7,99.7c.1,0,.1,0,.2.1a3.553,3.553,0,0,1,.9.4c.1,0,.2.1.4.1l.9.3c.1,0,.2.1.3.1.3.1.7.1,1,.2h.3c.4,0,.9.1,1.3.1a5.7,5.7,0,0,0,1.3-.1h.3a3.553,3.553,0,0,0,1-.2c.1,0,.2-.1.3-.1l.9-.3c.1,0,.2-.1.4-.1a3.553,3.553,0,0,0,.9-.4c.1,0,.1,0,.2-.1l206.3-100a12.094,12.094,0,0,0,6.8-10.8V112C454.8,111.9,454.8,111.8,454.8,111.7ZM236.5,25.3l178.4,86.5-65.7,31.9L170.8,57.2Zm0,173L58.1,111.8l85.2-41.3L321.7,157ZM42.8,131.1l181.7,88.1V442.5L42.8,354.4ZM248.5,442.5V219.2l85.3-41.4v58.4a12,12,0,0,0,24,0V166.1l73-35.4V354Z" transform="translate(-18.8)"/>
</svg>
